<mxfile host="app.diagrams.net" modified="2024-04-27T20:23:32.650Z" agent="Mozilla/5.0 (Windows NT 10.0; Win64; x64) AppleWebKit/537.36 (KHTML, like Gecko) Chrome/124.0.0.0 Safari/537.36" etag="X6kZQw850suSJsVoxnfg" version="23.1.5" type="device">
  <diagram name="Page-1" id="ChC3yfnY9fRvREDjHYu7">
    <mxGraphModel dx="1050" dy="530" grid="1" gridSize="10" guides="1" tooltips="1" connect="1" arrows="1" fold="1" page="1" pageScale="1" pageWidth="850" pageHeight="1100" math="0" shadow="0">
      <root>
        <mxCell id="0" />
        <mxCell id="1" parent="0" />
        <mxCell id="6Cl8E7cMhvsucuc0VOmW-7" style="edgeStyle=orthogonalEdgeStyle;rounded=0;orthogonalLoop=1;jettySize=auto;html=1;entryX=0;entryY=0.5;entryDx=0;entryDy=0;" edge="1" parent="1" source="6Cl8E7cMhvsucuc0VOmW-1" target="6Cl8E7cMhvsucuc0VOmW-3">
          <mxGeometry relative="1" as="geometry" />
        </mxCell>
        <mxCell id="6Cl8E7cMhvsucuc0VOmW-1" value="Frontend Application" style="rounded=0;whiteSpace=wrap;html=1;" vertex="1" parent="1">
          <mxGeometry x="120" y="180" width="120" height="60" as="geometry" />
        </mxCell>
        <mxCell id="6Cl8E7cMhvsucuc0VOmW-8" style="edgeStyle=orthogonalEdgeStyle;rounded=0;orthogonalLoop=1;jettySize=auto;html=1;entryX=0;entryY=0.5;entryDx=0;entryDy=0;" edge="1" parent="1" source="6Cl8E7cMhvsucuc0VOmW-3" target="6Cl8E7cMhvsucuc0VOmW-4">
          <mxGeometry relative="1" as="geometry" />
        </mxCell>
        <mxCell id="6Cl8E7cMhvsucuc0VOmW-9" style="edgeStyle=orthogonalEdgeStyle;rounded=0;orthogonalLoop=1;jettySize=auto;html=1;entryX=0;entryY=0.5;entryDx=0;entryDy=0;" edge="1" parent="1" source="6Cl8E7cMhvsucuc0VOmW-3" target="6Cl8E7cMhvsucuc0VOmW-5">
          <mxGeometry relative="1" as="geometry" />
        </mxCell>
        <mxCell id="6Cl8E7cMhvsucuc0VOmW-10" style="edgeStyle=orthogonalEdgeStyle;rounded=0;orthogonalLoop=1;jettySize=auto;html=1;entryX=0;entryY=0.5;entryDx=0;entryDy=0;" edge="1" parent="1" source="6Cl8E7cMhvsucuc0VOmW-3" target="6Cl8E7cMhvsucuc0VOmW-6">
          <mxGeometry relative="1" as="geometry" />
        </mxCell>
        <mxCell id="6Cl8E7cMhvsucuc0VOmW-3" value="A&lt;br&gt;P&lt;br&gt;I&lt;br&gt;&lt;br&gt;G&lt;br&gt;a&lt;br&gt;t&lt;br&gt;e&lt;br&gt;w&lt;br&gt;a&lt;br&gt;y" style="rounded=0;whiteSpace=wrap;html=1;" vertex="1" parent="1">
          <mxGeometry x="310" y="105" width="50" height="210" as="geometry" />
        </mxCell>
        <mxCell id="6Cl8E7cMhvsucuc0VOmW-4" value="Backend Application 1" style="rounded=0;whiteSpace=wrap;html=1;" vertex="1" parent="1">
          <mxGeometry x="430" y="105" width="130" height="60" as="geometry" />
        </mxCell>
        <mxCell id="6Cl8E7cMhvsucuc0VOmW-5" value="Backend Application 2" style="rounded=0;whiteSpace=wrap;html=1;" vertex="1" parent="1">
          <mxGeometry x="430" y="180" width="130" height="60" as="geometry" />
        </mxCell>
        <mxCell id="6Cl8E7cMhvsucuc0VOmW-6" value="Backend Application 3" style="rounded=0;whiteSpace=wrap;html=1;" vertex="1" parent="1">
          <mxGeometry x="430" y="255" width="130" height="60" as="geometry" />
        </mxCell>
        <mxCell id="6Cl8E7cMhvsucuc0VOmW-12" style="edgeStyle=orthogonalEdgeStyle;rounded=0;orthogonalLoop=1;jettySize=auto;html=1;entryX=0;entryY=0.5;entryDx=0;entryDy=0;" edge="1" parent="1" source="6Cl8E7cMhvsucuc0VOmW-11" target="6Cl8E7cMhvsucuc0VOmW-1">
          <mxGeometry relative="1" as="geometry" />
        </mxCell>
        <mxCell id="6Cl8E7cMhvsucuc0VOmW-11" value="User" style="shape=umlActor;verticalLabelPosition=bottom;verticalAlign=top;html=1;outlineConnect=0;" vertex="1" parent="1">
          <mxGeometry x="40" y="180" width="30" height="60" as="geometry" />
        </mxCell>
      </root>
    </mxGraphModel>
  </diagram>
</mxfile>
